<svg width="18" height="16" viewBox="0 0 18 16" fill="none" xmlns="http://www.w3.org/2000/svg">
<path d="M12.1342 10.8895C11.8049 10.9929 11.4541 10.8097 11.3507 10.4804C11.2474 10.151 11.4305 9.80025 11.7599 9.69688L15.189 8.62055C15.3051 8.5841 15.4239 8.58328 15.5336 8.61194C15.7585 8.64686 15.9562 8.80381 16.032 9.0349L17.1525 12.4499C17.2601 12.7778 17.0815 13.1309 16.7535 13.2385C16.4255 13.3461 16.0724 13.1675 15.9648 12.8395L15.3212 10.8778C14.818 11.883 14.0923 12.7692 13.1908 13.4646C11.8353 14.51 10.1635 15.0613 8.45205 15.0273C6.74058 14.9932 5.09203 14.3758 3.77922 13.2773C2.62792 12.3139 1.79535 11.0311 1.38179 9.59781C1.28537 9.26368 1.5092 8.93097 1.85023 8.86286C2.19126 8.79475 2.51985 9.01734 2.62189 9.3498C2.97553 10.502 3.65623 11.5322 4.58741 12.3115C5.6802 13.2259 7.05246 13.7398 8.47711 13.7682C9.90174 13.7965 11.2934 13.3376 12.4217 12.4674C13.1973 11.8691 13.8165 11.1012 14.2365 10.2296L12.1342 10.8895Z" fill="#434F70"/>
<path d="M1.65079 6.41685C1.42564 6.38211 1.22766 6.22509 1.15177 5.9938L0.0313165 2.57885C-0.076292 2.25088 0.102347 1.89777 0.430318 1.79016C0.75829 1.68256 1.1114 1.86119 1.21901 2.18917L1.8628 4.15133C2.36595 3.146 3.09169 2.25964 3.99335 1.5642C5.34882 0.518747 7.02063 -0.0325698 8.7321 0.00148843C10.4436 0.0355467 12.0921 0.652939 13.4049 1.7515C14.5562 2.7149 15.3888 3.99771 15.8024 5.43096C15.8988 5.76509 15.6749 6.09779 15.3339 6.16591C14.9929 6.23402 14.6643 6.01142 14.5623 5.67897C14.2086 4.52675 13.5279 3.49652 12.5967 2.71731C11.5039 1.80287 10.1317 1.28895 8.70704 1.2606C7.2824 1.23225 5.89078 1.69117 4.76248 2.56141C3.9869 3.1596 3.3677 3.92748 2.94772 4.79899L5.04979 4.13919C5.37912 4.03582 5.7299 4.219 5.83327 4.54833C5.93664 4.87767 5.75346 5.22844 5.42413 5.33181L1.99501 6.40814C1.87901 6.44454 1.76036 6.44541 1.65079 6.41685Z" fill="#434F70"/>
</svg>
